<?xml version="1.0" standalone="no"?>
<!DOCTYPE svg PUBLIC "-//W3C//DTD SVG 20010904//EN"
 "http://www.w3.org/TR/2001/REC-SVG-20010904/DTD/svg10.dtd">
<svg version="1.0" xmlns="http://www.w3.org/2000/svg"
 width="255.000000pt" height="255.000000pt" viewBox="0 0 255.000000 255.000000"
 preserveAspectRatio="xMidYMid meet">
<metadata>
Created by potrace 1.14, written by Peter Selinger 2001-2017
</metadata>
<g transform="translate(0.000000,255.000000) scale(0.100000,-0.100000)"
fill="#000000" stroke="none">
<path d="M1203 2486 c-78 -19 -152 -60 -215 -116 -31 -27 -61 -50 -68 -50 -19
0 -88 -39 -124 -70 -100 -88 -172 -270 -216 -547 -11 -65 -14 -72 -42 -84 -38
-16 -74 -70 -88 -133 -18 -80 -14 -223 8 -286 36 -103 58 -136 102 -154 l40
-16 0 -64 c0 -165 50 -319 145 -444 26 -35 46 -64 44 -66 -2 -1 -23 -8 -46
-15 -24 -6 -55 -22 -70 -35 -22 -19 -27 -32 -28 -72 l0 -48 -63 -18 c-68 -21
-146 -85 -140 -116 6 -32 306 -109 532 -137 71 -9 131 -14 133 -11 8 8 -73 45
-134 61 -31 8 -60 20 -64 27 -5 7 -15 43 -25 81 -15 64 -15 73 1 158 10 49 15
107 12 129 -4 29 -1 40 8 40 24 0 37 -30 42 -97 7 -80 15 -93 58 -93 27 0 48
14 118 77 75 70 100 97 176 193 18 24 20 24 27 6 11 -28 -37 -114 -107 -190
-60 -65 -71 -86 -45 -86 20 0 119 114 158 182 55 95 71 56 22 -52 -15 -34 -47
-79 -80 -111 -47 -47 -69 -89 -46 -89 18 0 133 129 151 170 25 56 27 31 3 -41
-10 -31 -43 -86 -75 -127 -52 -67 -62 -92 -37 -92 5 0 35 34 66 75 32 41 60
73 62 71 7 -8 -28 -78 -76 -148 -49 -72 -88 -114 -127 -137 -33 -20 307 -6
450 18 111 19 341 74 351 84 8 8 -14 53 -41 85 -32 38 -71 60 -134 76 l-45 11
3 51 c2 46 -1 54 -25 73 -15 12 -51 28 -81 37 -49 14 -53 17 -41 33 7 10 35
47 62 82 27 35 60 85 75 111 25 47 27 48 74 48 27 0 58 5 70 11 45 24 130 104
163 154 66 100 101 240 75 308 -7 17 -2 51 20 128 72 259 93 430 65 539 -73
286 -330 528 -646 610 -107 27 -310 36 -387 16z m-175 -465 c67 -53 122 -63
402 -71 140 -4 284 -14 320 -21 61 -12 70 -18 136 -83 112 -112 108 -102 83
-242 -18 -102 -19 -129 -10 -186 6 -37 11 -71 11 -77 0 -6 -19 -3 -45 6 -25 8
-45 19 -45 24 0 5 -18 29 -40 53 -58 63 -122 87 -247 94 -91 4 -106 3 -124
-14 -11 -10 -18 -26 -16 -36 5 -16 -2 -18 -54 -18 -48 0 -70 6 -121 34 -104
57 -270 110 -481 153 l-38 8 56 62 c57 63 101 146 145 276 13 37 25 67 27 67
2 0 21 -13 41 -29z m-425 -448 c3 -5 1 -17 -3 -27 -4 -14 -9 -16 -14 -8 -11
18 -39 15 -32 -4 3 -8 -1 -26 -10 -38 -23 -37 -33 -122 -22 -205 11 -91 24
-120 56 -128 21 -5 23 -10 18 -36 -8 -39 -10 -41 -33 -29 -10 6 -31 45 -48 89
-26 68 -30 90 -29 173 2 136 37 220 90 220 13 0 25 -3 27 -7z m380 -43 c76
-20 194 -67 186 -74 -2 -2 -53 9 -114 25 -60 15 -134 28 -163 29 -48 0 -57 -4
-95 -40 l-42 -39 29 -56 c48 -93 135 -145 240 -145 46 1 76 8 140 35 18 8 18
6 -3 -23 -35 -50 -75 -66 -162 -65 -119 1 -241 51 -268 109 -23 52 -4 204 32
242 17 18 31 22 82 22 34 0 96 -9 138 -20z m-89 -171 c17 -10 39 -19 49 -19
32 0 74 28 87 60 10 25 17 29 34 24 71 -22 84 -35 93 -88 5 -34 4 -37 -38 -56
-91 -41 -203 -19 -266 54 -43 48 -52 85 -27 103 18 13 20 11 28 -22 6 -25 18
-43 40 -56z m831 65 c58 -16 99 -40 50 -29 -16 4 -79 18 -140 31 l-110 23 75
-5 c41 -3 98 -12 125 -20z m-519 -38 c3 -8 4 -23 2 -33 -3 -13 -7 -9 -15 15
-12 31 1 48 13 18z m456 -30 c89 -17 177 -49 213 -78 25 -19 27 -26 23 -73 -2
-29 -18 -81 -36 -118 -39 -85 -72 -102 -172 -94 -153 13 -280 102 -280 196 0
16 9 11 43 -26 90 -98 212 -121 329 -60 62 32 63 34 62 74 -1 84 -44 113 -239
164 -97 25 -105 28 -63 29 25 0 79 -6 120 -14z m-193 -29 c-2 -1 -12 -9 -22
-16 -15 -12 -17 -12 -11 3 3 9 13 16 22 16 8 0 13 -1 11 -3z m-135 -49 c8 -14
17 -66 21 -131 7 -102 18 -138 31 -102 6 14 12 12 38 -14 65 -63 206 -106 324
-99 63 3 75 7 103 33 28 27 23 13 -45 -120 -119 -236 -184 -325 -287 -394 -68
-46 -83 -50 -74 -21 3 10 2 36 -4 57 -6 21 -13 50 -16 65 -3 17 -17 34 -36 43
-16 9 -34 26 -39 39 -5 14 -20 26 -37 29 -15 3 -47 10 -70 16 -24 6 -62 16
-85 22 -24 6 -64 16 -89 24 -25 7 -64 15 -85 17 -33 2 -39 0 -39 -16 0 -16 12
-22 71 -32 39 -6 80 -16 91 -22 11 -6 48 -16 83 -21 35 -6 67 -14 72 -19 13
-13 -55 -104 -138 -185 -73 -70 -79 -74 -106 -65 -23 8 -28 16 -28 45 0 47
-25 98 -56 112 -50 23 -84 8 -84 -38 0 -25 -1 -24 -38 12 -50 49 -98 129 -130
219 -25 69 -26 85 -30 306 -3 163 -1 237 7 245 8 8 11 5 11 -10 0 -80 218
-173 375 -161 82 7 127 35 172 107 54 86 89 103 117 59z m146 -26 c0 -33 47
-67 92 -67 32 0 45 6 64 28 13 16 24 35 24 43 0 18 6 18 64 -2 51 -18 79 -50
74 -85 -5 -34 -79 -69 -145 -69 -64 0 -107 16 -157 60 -49 43 -60 65 -46 90
13 25 30 26 30 2z m618 -64 c23 -23 14 -115 -20 -196 -26 -65 -43 -89 -106
-149 -63 -61 -80 -73 -108 -73 l-34 0 16 33 c13 27 21 33 39 29 35 -6 60 12
110 82 51 72 75 131 75 186 0 25 5 40 16 44 21 8 6 29 -17 23 -11 -3 -19 0
-19 7 0 27 27 35 48 14z"/>
<path d="M927 1726 c-46 -17 -117 -63 -117 -76 0 -5 19 -2 42 6 111 39 214 23
341 -52 74 -43 89 -44 85 -2 -2 24 -14 40 -45 64 -88 67 -216 92 -306 60z"/>
<path d="M1037 1012 c-34 -38 -14 -90 40 -106 13 -4 42 -23 65 -43 41 -34 45
-35 93 -28 27 5 70 8 95 7 66 -2 96 35 74 92 -11 28 -24 17 -24 -18 0 -43 -11
-51 -54 -35 -23 8 -42 9 -62 2 -41 -14 -95 1 -117 31 -14 20 -27 26 -57 26
-45 0 -54 16 -34 55 8 15 14 29 14 31 0 10 -19 2 -33 -14z"/>
<path d="M1024 622 c19 -31 159 -69 188 -51 17 11 13 13 -72 32 -41 10 -86 20
-99 24 -17 4 -22 3 -17 -5z"/>
</g>
</svg>
